# xmcd
# 
# Track frame offsets:
#     150
#     23796
#     40912
#     72022
#     106759
#     124755
#     143836
#     173028
# 
# Disc length: 2560
# 
# Revision: 0
# Processed by: cddbd v1.5.2PL0 Copyright (c) Steve Scherf et al.
# Submitted via: fre:ac v1.0.17
# 
DISCID=6209fe08
DTITLE=Tierra Santa - Medieval
DYEAR=1997
DGENRE=Heavy Metal
TTITLE0=Medieval
TTITLE1=Tierra Santa
TTITLE2=Leyenda
TTITLE3=Desterrado
TTITLE4=Hijos del Odio
TTITLE5=Vikingos
TTITLE6=Reino de Sueños
TTITLE7=Nunca más
EXTD=
EXTT0=
EXTT1=
EXTT2=
EXTT3=
EXTT4=
EXTT5=
EXTT6=
EXTT7=
PLAYORDER=
